<svg xmlns="http://www.w3.org/2000/svg" xmlns:xlink="http://www.w3.org/1999/xlink" version="1.1" id="Layer_1" x="0px" y="0px" style="enable-background:new 0 0 1920 1080;" xml:space="preserve" viewBox="164.94 356.85 1595.19 380.18">
<style type="text/css">
	.st0{fill:#FFFFFF;}
	.st1{fill:#A7A7AA;}
	.st2{fill:#2B2B2B;}
	.st3{fill:#2A0CD0;}
</style>
<circle class="st0" cx="355.03" cy="546.94" r="190.09"/>
<g>
	<g>
		<path class="st0" d="M660.95,649.99v82.66h-70.41v-375h70.41v227.55l109.18-123.98h84.7L734.42,587.24l121.94,145.41h-88.77    L683.4,625.5L660.95,649.99z"/>
		<path class="st0" d="M961.94,397.44c0,22.45-15.81,37.25-38.78,37.25c-22.96,0-38.77-14.8-38.77-37.25    c0-21.94,15.81-37.24,38.77-37.24C946.13,360.2,961.94,375.5,961.94,397.44z M887.96,732.65V461.22h70.41v271.43H887.96z"/>
		<path class="st0" d="M1157.8,456.63v56.63c-58.68-4.09-87.75,21.94-87.75,94.9v124.49h-70.41V461.22h70.41v49.49l21.43-37.76    c13.26-12.24,31.12-18.37,46.43-18.37C1146.07,454.58,1151.68,455.1,1157.8,456.63z"/>
		<path class="st0" d="M1357.66,456.63v56.63c-58.67-4.09-87.75,21.94-87.75,94.9v124.49h-70.41V461.22h70.41v49.49l21.43-37.76    c13.26-12.24,31.12-18.37,46.43-18.37C1345.93,454.58,1351.54,455.1,1357.66,456.63z"/>
		<path class="st0" d="M1467.34,397.44c0,22.45-15.82,37.25-38.78,37.25c-22.96,0-38.78-14.8-38.78-37.25    c0-21.94,15.82-37.24,38.78-37.24C1451.52,360.2,1467.34,375.5,1467.34,397.44z M1393.36,732.65V461.22h70.41v271.43H1393.36z"/>
		<path class="st0" d="M1760.13,579.58v153.06h-70.41V589.28c0-11.22,0-23.98-1.02-37.76c-2.05-28.57-17.86-47.96-52.04-47.96    s-61.23,29.59-61.23,105.1v123.98h-70.41V461.22h70.41v43.88l20.92-32.14c19.39-13.77,39.29-18.88,65.31-18.88    c57.65,0,90.81,28.57,96.43,76.02C1759.62,543.87,1760.13,557.65,1760.13,579.58z"/>
	</g>
</g>
<g>
	<polygon class="st1" points="440.84,534.53 440.84,464.23 366.35,464.23 366.35,490.31 339.14,490.31 339.14,464.23 273.02,464.23    273.02,632.05 301.81,632.05 301.81,605.62 329.03,605.62 329.03,632.05 440.84,632.05 440.84,561.74 414.07,561.74 414.07,534.53     "/>
</g>
</svg>